name C:\Users\u0101727\Documents\MyRepositories\upper-imu-dc\Results\main_tracking\Case_54\kinematics.mot
datacolumns 10
datarows 23
range 0.00000000 0.22000000
endheader 
time	clav_prot	clav_elev	scapula_abduction	scapula_elevation	scapula_upward_rot	scapula_winging	plane_elv	shoulder_elv	axial_rot	
          0.00000000	        -29.29354398	         -2.56765143	        -22.84786783	         -3.81723412	         15.37901414	          3.82258499	        -30.89328592	         14.96022574	         23.46349682	
          0.01000000	        -29.21821533	         -2.63325861	        -22.85969999	         -3.81237491	         15.37660095	          3.82066509	        -30.88056031	         14.98954906	         23.21388011	
          0.02000000	        -29.22179087	         -2.62642512	        -22.86867805	         -3.80702375	         15.37492348	          3.81830418	        -30.86829646	         15.02030732	         22.96615385	
          0.03000000	        -29.22555079	         -2.62030557	        -22.87806556	         -3.80209517	         15.37272891	          3.81627211	        -30.85722240	         15.04977941	         22.72269593	
          0.04000000	        -29.22935578	         -2.61522448	        -22.88753829	         -3.79782353	         15.37001107	          3.81469724	        -30.84803037	         15.07713672	         22.48665981	
          0.05000000	        -29.23306757	         -2.61118068	        -22.89674746	         -3.79424813	         15.36696653	          3.81355220	        -30.84147403	         15.10207870	         22.26154696	
          0.06000000	        -29.23662899	         -2.60815437	        -22.90551625	         -3.79138669	         15.36373982	          3.81280317	        -30.83829667	         15.12447693	         22.05084841	
          0.07000000	        -29.24002642	         -2.60617414	        -22.91376222	         -3.78928154	         15.36041584	          3.81243959	        -30.83918372	         15.14428413	         21.85775911	
          0.08000000	        -29.24328100	         -2.60532653	        -22.92147803	         -3.78800693	         15.35702264	          3.81247795	        -30.84473668	         15.16152905	         21.68495551	
          0.09000000	        -29.24645957	         -2.60574737	        -22.92875517	         -3.78766205	         15.35352667	          3.81295835	        -30.85547219	         15.17632718	         21.53444403	
          0.10000000	        -29.24967810	         -2.60760460	        -22.93579009	         -3.78836017	         15.34984033	          3.81393658	        -30.87182519	         15.18888661	         21.40747483	
          0.11000000	        -29.25309011	         -2.61107599	        -22.94285683	         -3.79021715	         15.34584636	          3.81547282	        -30.89414576	         15.19950573	         21.30451379	
          0.12000000	        -29.25686711	         -2.61632586	        -22.95026206	         -3.79334059	         15.34142990	          3.81761943	        -30.92268806	         15.20856406	         21.22526330	
          0.13000000	        -29.26118433	         -2.62348516	        -22.95831224	         -3.79781997	         15.33650320	          3.82041092	        -30.95759323	         15.21650799	         21.16872426	
          0.14000000	        -29.26621428	         -2.63263692	        -22.96729894	         -3.80371872	         15.33101941	          3.82385680	        -30.99886702	         15.22383312	         21.13329422	
          0.15000000	        -29.27212161	         -2.64380509	        -22.97748690	         -3.81106818	         15.32498347	          3.82793623	        -31.04635213	         15.23106777	         21.11689877	
          0.16000000	        -29.27906022	         -2.65694597	        -22.98910728	         -3.81986281	         15.31845976	          3.83259370	        -31.09970097	         15.23876456	         21.11714895	
          0.17000000	        -29.28717971	         -2.67194460	        -23.00237131	         -3.83005701	         15.31156854	          3.83773754	        -31.15835653	         15.24750071	         21.13150682	
          0.18000000	        -29.29663819	         -2.68861982	        -23.01749909	         -3.84156611	         15.30447123	          3.84324287	        -31.22154298	         15.25787836	         21.15743399	
          0.19000000	        -29.30761354	         -2.70673790	        -23.03474513	         -3.85427278	         15.29735191	          3.84895848	        -31.28826442	         15.27051820	         21.19250319	
          0.20000000	        -29.32031170	         -2.72603077	        -23.05441830	         -3.86803659	         15.29039830	          3.85471576	        -31.35731213	         15.28604845	         21.23446666	
          0.21000000	        -29.33497432	         -2.74621264	        -23.07690019	         -3.88270252	         15.28378377	          3.86033698	        -31.42727930	         15.30509519	         21.28128549	
          0.22000000	        -29.35188296	         -2.76698934	        -23.10265577	         -3.89810563	         15.27765648	          3.86564002	        -31.49657734	         15.32827760	         21.33112728	
